<svg xmlns:xlink="http://www.w3.org/1999/xlink" width="20" height="20" viewBox="0 0 20 20" fill="none" xmlns="http://www.w3.org/2000/svg">
                                <path d="M14.166 2.91797H5.83268C3.33268 2.91797 1.66602 4.16797 1.66602 7.08464V12.918C1.66602 15.8346 3.33268 17.0846 5.83268 17.0846H14.166C16.666 17.0846 18.3327 15.8346 18.3327 12.918V7.08464C18.3327 4.16797 16.666 2.91797 14.166 2.91797ZM14.5577 7.99297L11.9493 10.0763C11.3993 10.518 10.6993 10.7346 9.99935 10.7346C9.29935 10.7346 8.59102 10.518 8.04935 10.0763L5.44102 7.99297C5.17435 7.7763 5.13268 7.3763 5.34102 7.10964C5.55768 6.84297 5.94935 6.79297 6.21602 7.00964L8.82435 9.09297C9.45768 9.6013 10.5327 9.6013 11.166 9.09297L13.7743 7.00964C14.041 6.79297 14.441 6.83464 14.6493 7.10964C14.866 7.3763 14.8243 7.7763 14.5577 7.99297Z" fill="#114B5F"></path>
                            </svg>