<svg xmlns:xlink="http://www.w3.org/1999/xlink" width="40" height="40" viewBox="0 0 40 40" fill="none" xmlns="http://www.w3.org/2000/svg">
                            <path d="M18.4173 24.9154L15.334 27.9987C14.684 28.6487 13.6507 28.6487 12.984 28.0154C12.8007 27.832 12.6173 27.6654 12.434 27.482C10.7173 25.7487 9.16732 23.932 7.78398 22.032C6.41732 20.132 5.31732 18.232 4.51732 16.3487C3.73398 14.4487 3.33398 12.632 3.33398 10.8987C3.33398 9.76536 3.53398 8.68203 3.93398 7.68203C4.33398 6.66536 4.96732 5.73203 5.85065 4.8987C6.91732 3.8487 8.08398 3.33203 9.31732 3.33203C9.78398 3.33203 10.2507 3.43203 10.6673 3.63203C11.1007 3.83203 11.484 4.13203 11.784 4.56536L15.6507 10.0154C15.9507 10.432 16.1673 10.8154 16.3173 11.182C16.4673 11.532 16.5507 11.882 16.5507 12.1987C16.5507 12.5987 16.434 12.9987 16.2007 13.382C15.984 13.7654 15.6673 14.1654 15.2673 14.5654L14.0007 15.882C13.8173 16.0654 13.734 16.282 13.734 16.5487C13.734 16.682 13.7507 16.7987 13.784 16.932C13.834 17.0654 13.884 17.1654 13.9173 17.2654C14.2173 17.8154 14.734 18.532 15.4673 19.3987C16.2173 20.2654 17.0173 21.1487 17.884 22.032C18.0506 22.1987 18.234 22.3654 18.4007 22.532C19.0673 23.182 19.084 24.2487 18.4173 24.9154Z" fill="#114B5F"></path>
                            <path d="M36.6167 30.5484C36.6167 31.0151 36.5333 31.4984 36.3667 31.9651C36.3167 32.0984 36.2667 32.2318 36.2 32.3651C35.9167 32.9651 35.55 33.5318 35.0667 34.0651C34.25 34.9651 33.35 35.6151 32.3333 36.0318C32.3167 36.0318 32.3 36.0484 32.2833 36.0484C31.3 36.4484 30.2333 36.6651 29.0833 36.6651C27.3833 36.6651 25.5667 36.2651 23.65 35.4484C21.7333 34.6318 19.8167 33.5318 17.9167 32.1484C17.2667 31.6651 16.6167 31.1818 16 30.6651L21.45 25.2151C21.9167 25.5651 22.3333 25.8318 22.6833 26.0151C22.7667 26.0484 22.8667 26.0984 22.9833 26.1484C23.1167 26.1984 23.25 26.2151 23.4 26.2151C23.6833 26.2151 23.9 26.1151 24.0833 25.9318L25.35 24.6818C25.7667 24.2651 26.1667 23.9484 26.55 23.7484C26.9333 23.5151 27.3167 23.3984 27.7333 23.3984C28.05 23.3984 28.3833 23.4651 28.75 23.6151C29.1167 23.7651 29.5 23.9818 29.9167 24.2651L35.4333 28.1818C35.8667 28.4818 36.1667 28.8318 36.35 29.2484C36.5167 29.6651 36.6167 30.0818 36.6167 30.5484Z" fill="#114B5F"></path>
                        </svg>