<svg xmlns:xlink="http://www.w3.org/1999/xlink" width="24" height="24" viewBox="0 0 24 24" fill="none" xmlns="http://www.w3.org/2000/svg">
                            <path d="M15 22.75H9C4.59 22.75 3.25 21.41 3.25 17V7C3.25 2.59 4.59 1.25 9 1.25H15C19.41 1.25 20.75 2.59 20.75 7V17C20.75 21.41 19.41 22.75 15 22.75ZM9 2.75C5.42 2.75 4.75 3.43 4.75 7V17C4.75 20.57 5.42 21.25 9 21.25H15C18.58 21.25 19.25 20.57 19.25 17V7C19.25 3.43 18.58 2.75 15 2.75H9Z" fill="#A3ADC0"></path>
                            <path d="M15.75 7.03125H11.25C10.7887 7.03125 10.4062 6.64875 10.4062 6.1875C10.4062 5.72625 10.7887 5.34375 11.25 5.34375H15.75C16.2112 5.34375 16.5938 5.72625 16.5938 6.1875C16.5938 6.64875 16.2112 7.03125 15.75 7.03125Z" fill="#A3ADC0"></path>
                            <path d="M13.4996 22.343C12.0709 22.343 10.9121 21.1842 10.9121 19.7555C10.9121 18.3267 12.0709 17.168 13.4996 17.168C14.9284 17.168 16.0871 18.3267 16.0871 19.7555C16.0871 21.1842 14.9284 22.343 13.4996 22.343ZM13.4996 18.8442C13.0046 18.8442 12.5996 19.2492 12.5996 19.7442C12.5996 20.2392 13.0046 20.6442 13.4996 20.6442C13.9946 20.6442 14.3996 20.2392 14.3996 19.7442C14.3996 19.2492 13.9946 18.8442 13.4996 18.8442Z" fill="#A3ADC0"></path>
                        </svg>